<?xml version="1.0" encoding="UTF-8" standalone="no"?>
<!DOCTYPE svg PUBLIC "-//W3C//DTD SVG 1.1//EN"
 "http://www.w3.org/Graphics/SVG/1.1/DTD/svg11.dtd">
<!-- Generated by graphviz version 2.28.0 (20111028.1807)
 -->
<!-- Pages: 1 -->
<svg width="98pt" height="264pt"
 viewBox="0.00 0.00 98.00 264.00" xmlns="http://www.w3.org/2000/svg" xmlns:xlink="http://www.w3.org/1999/xlink">
<g id="graph1" class="graph" transform="scale(1 1) rotate(0) translate(4 260)">
<polygon fill="white" stroke="white" points="-4,5 -4,-260 95,-260 95,5 -4,5"/>
<!-- 1 -->
<g id="node1" class="node"><title>1</title>
<ellipse fill="none" stroke="red" cx="45" cy="-237" rx="19.1214" ry="19.162"/>
<text text-anchor="middle" x="45" y="-231.4" font-family="Times,serif" font-size="14.00">r1</text>
</g>
<!-- 2 -->
<g id="node2" class="node"><title>2</title>
<polygon fill="none" stroke="blue" points="63,-182 27,-182 27,-146 63,-146 63,-182"/>
<text text-anchor="middle" x="45" y="-158.4" font-family="Times,serif" font-size="14.00">l1</text>
</g>
<!-- 1&#45;&gt;2 -->
<g id="edge2" class="edge"><title>1&#45;&gt;2</title>
<a xlink:title="T">
<path fill="none" stroke="black" d="M45,-217.716C45,-209.973 45,-200.789 45,-192.274"/>
<polygon fill="black" stroke="black" points="48.5001,-192.003 45,-182.003 41.5001,-192.003 48.5001,-192.003"/>
</a>
</g>
<!-- 3 -->
<g id="node3" class="node"><title>3</title>
<ellipse fill="none" stroke="red" cx="45" cy="-91" rx="19.1214" ry="19.162"/>
<text text-anchor="middle" x="45" y="-85.4" font-family="Times,serif" font-size="14.00">r2</text>
</g>
<!-- 2&#45;&gt;3 -->
<g id="edge4" class="edge"><title>2&#45;&gt;3</title>
<a xlink:title="x">
<path fill="none" stroke="black" d="M45,-145.813C45,-138.168 45,-128.964 45,-120.346"/>
<polygon fill="black" stroke="black" points="48.5001,-120.27 45,-110.27 41.5001,-120.27 48.5001,-120.27"/>
</a>
</g>
<!-- 4 -->
<g id="node4" class="node"><title>4</title>
<polygon fill="none" stroke="blue" points="36,-36 0,-36 0,-0 36,-0 36,-36"/>
<text text-anchor="middle" x="18" y="-12.4" font-family="Times,serif" font-size="14.00">lN</text>
</g>
<!-- 3&#45;&gt;4 -->
<g id="edge6" class="edge"><title>3&#45;&gt;4</title>
<a xlink:title="rN=r2">
<path fill="none" stroke="black" d="M38.4641,-72.8129C35.3466,-64.6151 31.5468,-54.6231 28.0716,-45.4847"/>
<polygon fill="black" stroke="black" points="31.3017,-44.1317 24.4758,-36.0288 24.7589,-46.6199 31.3017,-44.1317"/>
</a>
</g>
<!-- 5 -->
<g id="node5" class="node"><title>5</title>
<polygon fill="none" stroke="blue" points="90,-36 54,-36 54,-0 90,-0 90,-36"/>
<text text-anchor="middle" x="72" y="-12.4" font-family="Times,serif" font-size="14.00">l2</text>
</g>
<!-- 3&#45;&gt;5 -->
<g id="edge8" class="edge"><title>3&#45;&gt;5</title>
<a xlink:title="rN!=r2">
<path fill="none" stroke="black" d="M51.5359,-72.8129C54.6534,-64.6151 58.4532,-54.6231 61.9284,-45.4847"/>
<polygon fill="black" stroke="black" points="65.2411,-46.6199 65.5242,-36.0288 58.6983,-44.1317 65.2411,-46.6199"/>
</a>
</g>
</g>
</svg>
